<svg xmlns="http://www.w3.org/2000/svg" version="1.1" xmlns:xlink="http://www.w3.org/1999/xlink" xmlns:svgjs="http://svgjs.com/svgjs" width="260.000000pt" height="260.000000pt"><svg version="1.0" xmlns="http://www.w3.org/2000/svg" width="260.000000pt" height="260.000000pt" viewBox="0 0 260.000000 260.000000" preserveAspectRatio="xMidYMid meet">
<metadata>
Created by potrace 1.14, written by Peter Selinger 2001-2017
</metadata>
<g transform="translate(0.000000,260.000000) scale(0.100000,-0.100000)" fill="#000000" stroke="none">
<path d="M2290 2222 c0 -4 -21 -30 -47 -57 -43 -45 -118 -177 -158 -277 -13
-33 -19 -38 -46 -38 -26 0 -42 -11 -83 -54 -28 -30 -70 -66 -93 -81 -31 -20
-43 -34 -43 -52 0 -34 -38 -103 -56 -103 -9 0 -30 12 -47 26 -20 17 -37 24
-51 20 -12 -3 -26 -6 -33 -6 -6 0 -19 -13 -30 -29 -18 -29 -85 -81 -103 -81
-16 0 -11 20 10 47 27 34 25 66 -5 99 -46 50 -155 49 -155 -1 0 -21 -99 -104
-152 -127 -27 -11 -53 -29 -59 -39 -10 -20 -49 -26 -49 -9 0 15 -49 32 -71 25
-13 -4 -19 -16 -19 -36 0 -40 -20 -118 -32 -125 -6 -4 -27 12 -48 35 -43 46
-39 45 -77 30 -35 -14 -118 -12 -147 3 -11 7 -59 15 -105 18 -84 5 -99 12 -81
40 7 12 13 11 35 -10 21 -20 30 -22 53 -14 26 10 27 12 25 84 -2 81 -29 167
-58 185 -14 8 -25 1 -61 -40 -24 -27 -44 -53 -44 -58 0 -4 -21 -38 -46 -75
-46 -67 -109 -111 -159 -112 -11 0 -42 -22 -69 -47 -46 -44 -50 -51 -50 -99
-1 -37 -7 -58 -21 -74 -17 -19 -20 -35 -18 -114 1 -53 8 -109 17 -135 26 -70
22 -86 -28 -115 -25 -14 -54 -26 -65 -26 -19 0 -21 -6 -21 -65 0 -37 4 -65 10
-65 6 0 10 -7 10 -16 0 -15 27 -88 55 -149 8 -16 17 -42 21 -57 9 -40 40 -63
81 -59 6 0 15 25 18 55 8 63 37 116 63 116 32 0 42 22 42 91 0 80 10 91 77 87
46 -3 49 -5 73 -50 19 -37 36 -52 86 -78 70 -36 117 -38 122 -5 10 67 7 65 82
65 81 0 120 -12 120 -38 0 -24 52 -62 96 -69 29 -5 35 -11 44 -42 14 -50 46
-100 73 -111 12 -6 36 -19 52 -29 36 -23 154 -28 185 -9 16 10 24 10 40 0 44
-27 113 2 122 53 5 28 48 31 89 6 27 -17 51 -21 116 -21 46 0 85 5 88 10 10
17 85 63 140 86 l50 22 3 86 3 85 45 7 c40 6 49 3 72 -19 15 -13 41 -32 59
-41 35 -18 118 -22 128 -6 15 24 23 4 28 -72 4 -69 9 -85 27 -100 29 -24 65
-23 90 2 17 17 20 33 20 112 -1 57 -7 108 -16 133 -8 22 -19 65 -24 95 -4 30
-12 64 -16 74 -13 33 13 9 47 -44 33 -51 54 -65 82 -54 49 18 14 90 -99 207
-61 63 -96 73 -102 29 -2 -16 -9 -22 -20 -19 -9 2 -30 -3 -45 -10 -16 -8 -35
-12 -43 -9 -17 6 -19 62 -4 102 6 14 13 61 16 103 4 51 12 85 25 103 10 15 19
31 19 36 0 5 15 30 34 57 32 44 35 56 42 146 9 129 25 134 39 13 4 -32 12 -70
18 -84 5 -14 13 -41 16 -60 5 -28 17 -42 61 -72 66 -45 108 -68 127 -68 17 0
17 53 -1 105 -8 22 -17 52 -20 66 -3 15 -25 53 -50 86 l-43 59 -5 135 c-4 92
-11 146 -22 171 -9 21 -16 52 -16 71 0 42 -17 65 -54 75 -50 13 -55 36 -18 75
36 38 41 71 13 105 -18 21 -81 32 -81 14z m38 -1257 c-3 -3 -9 2 -12 12 -6 14
-5 15 5 6 7 -7 10 -15 7 -18z"></path>
<path d="M947 1646 c-26 -13 -70 -42 -97 -65 -42 -36 -50 -48 -50 -77 0 -51
15 -74 50 -74 31 0 39 8 55 54 7 21 34 46 90 84 44 29 82 59 84 64 6 16 -29
38 -58 38 -14 0 -48 -11 -74 -24z"></path>
</g>
</svg><style>@media (prefers-color-scheme: light) { :root { filter: none; } }
</style></svg>